<?xml version="1.0" encoding="utf-8"?>
<!-- Generator: Adobe Illustrator 15.0.0, SVG Export Plug-In . SVG Version: 6.00 Build 0)  -->
<!DOCTYPE svg PUBLIC "-//W3C//DTD SVG 1.1//EN" "http://www.w3.org/Graphics/SVG/1.1/DTD/svg11.dtd">
<svg version="1.1" id="Layer_1" xmlns="http://www.w3.org/2000/svg" xmlns:xlink="http://www.w3.org/1999/xlink" x="0px" y="0px"
	 width="595.28px" height="841.89px" viewBox="0 0 595.28 841.89" enable-background="new 0 0 595.28 841.89" xml:space="preserve">
<rect x="-10" y="-10" fill="#FFF200" width="613.16" height="859.678"/>
<g>
	<path fill="#1B5880" d="M112.426,512.33h0.112l9.124-28.119h9.01l8.541,28.119h0.116l8.202-28.119h11.775l-13.915,43.534h-11.548
		l-7.619-25.226h-0.115l-8.545,25.226h-11.49l-12.991-43.534h11.779L112.426,512.33z"/>
	<path fill="#1B5880" d="M208.1,505.175c0,14.09-10.1,24.021-24.079,24.021c-13.969,0-24.073-9.931-24.073-24.021
		c0-13.166,11.546-22.406,24.073-22.406C196.556,482.769,208.1,492.009,208.1,505.175z M171.725,505.23
		c0,7.505,5.544,12.989,12.295,12.989c6.758,0,12.302-5.484,12.302-12.989c0-6.002-5.544-11.485-12.302-11.485
		C177.27,493.745,171.725,499.229,171.725,505.23z"/>
	<path fill="#1B5880" d="M213.357,484.211h11.322l20.724,26.625h0.117v-26.625h11.315v43.534H245.52l-20.727-26.668h-0.114v26.668
		h-11.322V484.211z"/>
	<path fill="#1B5880" d="M264.231,484.211h16.052c12.125,0,22.111,9.534,22.111,21.771s-10.048,21.763-22.111,21.763h-16.052
		V484.211z M275.547,518.159h2.539c6.755,0,12.531-3.688,12.531-12.177c0-7.79-5.141-12.186-12.417-12.186h-2.653V518.159z"/>
	<path fill="#1B5880" d="M318.976,493.797v7.28h12.755v9.577h-12.755v7.505h13.446v9.586h-24.769v-43.534h24.769v9.586H318.976z"/>
	<path fill="#1B5880" d="M375.61,527.745h-14.086l-10.683-16.737h-0.116v16.737h-11.317v-43.534h16.918
		c8.605,0,15.13,4.102,15.13,13.403c0,6.002-3.351,11.2-9.525,12.297L375.61,527.745z M350.726,503.729h1.097
		c3.7,0,7.854-0.691,7.854-5.424s-4.154-5.424-7.854-5.424h-1.097V503.729z"/>
	<path fill="#1B5880" d="M112.426,563.282h0.112l9.124-28.119h9.01l8.541,28.119h0.116l8.202-28.119h11.775l-13.915,43.534h-11.548
		l-7.619-25.23h-0.115l-8.545,25.23h-11.49l-12.991-43.534h11.779L112.426,563.282z"/>
	<path fill="#1B5880" d="M208.1,556.123c0,14.085-10.1,24.017-24.079,24.017c-13.969,0-24.073-9.932-24.073-24.017
		c0-13.162,11.546-22.402,24.073-22.402C196.556,533.721,208.1,542.961,208.1,556.123z M171.725,556.179
		c0,7.509,5.544,12.984,12.295,12.984c6.758,0,12.302-5.476,12.302-12.984c0-6.006-5.544-11.49-12.302-11.49
		C177.27,544.688,171.725,550.173,171.725,556.179z"/>
	<path fill="#1B5880" d="M218.152,535.163h11.143l8.834,23.274l9.351-23.274h11.259l6.585,43.534h-11.315l-3.176-25.053h-0.119
		l-10.447,25.053h-4.506l-9.985-25.053h-0.121l-3.636,25.053h-11.255L218.152,535.163z"/>
	<path fill="#1B5880" d="M281.435,544.749v7.271h12.762v9.586h-12.762v7.505h13.455v9.586h-24.771v-43.534h24.771v9.586H281.435z"/>
	<path fill="#1B5880" d="M301.876,535.163h11.321l20.723,26.616h0.116v-26.616h11.317v43.534h-11.317l-20.726-26.677h-0.113v26.677
		h-11.321V535.163z"/>
	<path fill="#1B5880" d="M108.961,595.693v7.279h12.414v9.578h-12.414v17.09h-11.32v-43.533h25.003v9.586H108.961z"/>
	<path fill="#1B5880" d="M140.258,629.641H128.94v-43.533h11.317V629.641z"/>
	<path fill="#1B5880" d="M164.97,629.641h-11.318v-33.947h-9.353v-9.586h30.025v9.586h-9.354V629.641z"/>
	<path fill="#1B5880" d="M178.424,586.107h11.315l20.731,26.615h0.112v-26.615H221.9v43.533h-11.318l-20.726-26.668h-0.117v26.668
		h-11.315V586.107z"/>
	<path fill="#1B5880" d="M240.61,595.693v7.279h12.76v9.578h-12.76v7.509h13.457v9.581h-24.772v-43.533h24.772v9.586H240.61z"/>
	<path fill="#1B5880" d="M284.958,597.308c-2.079-1.735-4.737-2.889-7.507-2.889c-2.079,0-4.847,1.222-4.847,3.64
		c0,2.539,3.057,3.524,5.02,4.159l2.887,0.867c6.062,1.788,10.739,4.845,10.739,11.892c0,4.327-1.041,8.783-4.504,11.72
		c-3.402,2.893-7.967,4.102-12.354,4.102c-5.483,0-10.857-1.848-15.303-4.966l4.852-9.119c2.83,2.479,6.179,4.499,10.045,4.499
		c2.658,0,5.484-1.321,5.484-4.387c0-3.178-4.445-4.274-6.865-4.966c-7.105-2.021-11.782-3.869-11.782-12.293
		c0-8.835,6.293-14.608,15.014-14.608c4.385,0,9.754,1.382,13.621,3.575L284.958,597.308z"/>
	<path fill="#1B5880" d="M320.521,597.308c-2.073-1.735-4.732-2.889-7.505-2.889c-2.073,0-4.845,1.222-4.845,3.64
		c0,2.539,3.057,3.524,5.025,4.159l2.885,0.867c6.062,1.788,10.739,4.845,10.739,11.892c0,4.327-1.041,8.783-4.504,11.72
		c-3.411,2.893-7.967,4.102-12.358,4.102c-5.483,0-10.854-1.848-15.298-4.966l4.847-9.119c2.834,2.479,6.177,4.499,10.046,4.499
		c2.659,0,5.487-1.321,5.487-4.387c0-3.178-4.442-4.274-6.869-4.966c-7.104-2.021-11.777-3.869-11.777-12.293
		c0-8.835,6.293-14.608,15.007-14.608c4.388,0,9.759,1.382,13.628,3.575L320.521,597.308z"/>
	<path fill="#1B5880" d="M137.772,658.649v1.731c0,11.957-8.431,21.137-20.612,21.137c-12.183,0-21.998-10.51-21.998-22.574
		c0-12.54,10.048-22.809,22.575-22.809c6.755,0,13.453,3.058,17.725,8.425l-3.813,3.64c-3.117-4.274-8.372-7.099-13.679-7.099
		c-9.763,0-17.382,7.911-17.382,17.67c0,9.119,7.507,17.776,16.918,17.776c6.753,0,14.031-5.824,14.26-12.932h-11.259v-4.966
		H137.772z"/>
	<path fill="#1B5880" d="M170.222,680.594h-6.581l-12.818-18.421h-2.25v18.421h-5.428V637.06h6.581c3.867,0,8.025,0.06,11.49,2.021
		c3.636,2.133,5.717,6.235,5.717,10.389c0,6.235-4.156,11.435-10.454,12.186L170.222,680.594z M148.574,657.669h1.729
		c5.544,0,11.548-1.04,11.548-7.967c0-6.813-6.468-7.794-11.833-7.794h-1.444V657.669z"/>
	<path fill="#1B5880" d="M217.053,658.822c0,12.937-10.221,22.695-22.806,22.695c-12.589,0-22.808-9.759-22.808-22.695
		c0-12.471,10.335-22.688,22.808-22.688C206.718,636.135,217.053,646.352,217.053,658.822z M211.625,658.822
		c0-9.586-7.157-17.609-17.378-17.609s-17.382,8.023-17.382,17.609c0,9.932,7.969,17.617,17.382,17.617
		C203.654,676.439,211.625,668.754,211.625,658.822z"/>
	<path fill="#1B5880" d="M226.984,637.06v25.692c0,7.098,2.138,13.688,10.512,13.688c8.366,0,10.503-6.59,10.503-13.688V637.06
		h5.433v27.536c0,9.581-5.95,16.922-15.936,16.922c-9.99,0-15.94-7.341-15.94-16.922V637.06H226.984z"/>
	<path fill="#1B5880" d="M266.367,680.594h-5.428V637.06h6.23c13.396,0,17.555,4.616,17.555,12.582
		c0,9.181-6.984,12.704-15.238,12.704h-3.12V680.594z M266.367,657.492h1.729c5.544,0,11.548-1.036,11.548-7.963
		c0-6.813-6.468-7.621-11.833-7.621h-1.444V657.492z"/>
</g>
<g>
	<path fill="#1B5880" d="M96,724.253h-1.958v-15.714h2.252c4.834,0,6.334,1.667,6.334,4.543c0,3.316-2.522,4.586-5.501,4.586H96
		V724.253z M96,715.923h0.624c2.004,0,4.169-0.38,4.169-2.884c0-2.457-2.333-2.746-4.272-2.746H96V715.923z"/>
	<path fill="#1B5880" d="M105.944,714.503v5.397c0,1.559,0.396,2.936,2.25,2.936s2.252-1.377,2.252-2.936v-5.397h1.874v5.604
		c0,2.664-1.246,4.482-4.126,4.482c-2.876,0-4.126-1.818-4.126-4.482v-5.604H105.944z"/>
	<path fill="#1B5880" d="M118.743,716.734c-0.229-0.482-0.708-0.854-1.25-0.854c-0.518,0-1.021,0.415-1.021,0.959
		c0,0.851,1.127,1.226,2.271,1.744c1.148,0.522,2.252,1.235,2.252,2.776c0,1.857-1.542,3.23-3.357,3.23
		c-1.416,0-2.854-0.812-3.376-2.189l1.606-0.73c0.396,0.73,0.875,1.253,1.771,1.253c0.792,0,1.481-0.544,1.481-1.378
		c0-0.522-0.253-0.769-0.689-1.062l-1.833-0.979c-1.084-0.583-1.876-1.127-1.876-2.457c0-1.585,1.292-2.837,2.878-2.837
		c1.188,0,2.146,0.647,2.667,1.714L118.743,716.734z"/>
	<path fill="#1B5880" d="M124.706,706.164v9.646h0.043c0.583-1.04,1.749-1.602,2.934-1.602c2.755,0,3.463,1.853,3.463,4.228v5.816
		h-1.876v-5.579c0-1.671-0.229-2.794-2.148-2.794c-2.416,0-2.416,2.12-2.416,3.896v4.478h-1.876v-18.089H124.706z"/>
	<path fill="#1B5880" d="M138.191,714.503h2.187l3.294,6.188l3.066-6.188h2.105l-7.899,15.337h-2.127l3.834-7.25L138.191,714.503z"
		/>
	<path fill="#1B5880" d="M159.391,719.399c0,2.937-2.293,5.19-5.212,5.19s-5.208-2.254-5.208-5.19s2.289-5.19,5.208-5.19
		S159.391,716.463,159.391,719.399z M150.845,719.399c0,1.835,1.479,3.394,3.333,3.394c1.857,0,3.336-1.559,3.336-3.394
		c0-1.856-1.479-3.398-3.336-3.398C152.324,716.001,150.845,717.543,150.845,719.399z"/>
	<path fill="#1B5880" d="M162.893,714.503v5.397c0,1.559,0.397,2.936,2.252,2.936s2.252-1.377,2.252-2.936v-5.397h1.876v5.604
		c0,2.664-1.252,4.482-4.128,4.482c-2.876,0-4.128-1.818-4.128-4.482v-5.604H162.893z"/>
	<path fill="#1B5880" d="M173.774,716.083h0.062c0.46-1.145,1.42-1.874,2.667-1.874c0.544,0,1.088,0.189,1.546,0.479l-0.855,1.71
		c-0.334-0.294-0.708-0.397-1.146-0.397c-2.023,0-2.273,1.874-2.273,3.459v4.793h-1.876v-9.75h1.876V716.083z"/>
	<path fill="#1B5880" d="M183.01,716.734c-0.229-0.482-0.708-0.854-1.252-0.854c-0.518,0-1.021,0.415-1.021,0.959
		c0,0.851,1.127,1.226,2.273,1.744c1.146,0.522,2.251,1.235,2.251,2.776c0,1.857-1.543,3.23-3.357,3.23
		c-1.414,0-2.854-0.812-3.375-2.189l1.604-0.73c0.397,0.73,0.876,1.253,1.771,1.253c0.792,0,1.481-0.544,1.481-1.378
		c0-0.522-0.25-0.769-0.688-1.062l-1.835-0.979c-1.083-0.583-1.874-1.127-1.874-2.457c0-1.585,1.293-2.837,2.876-2.837
		c1.189,0,2.146,0.647,2.67,1.714L183.01,716.734z"/>
	<path fill="#1B5880" d="M188.222,719.693c0.022,1.666,1.149,3.229,2.941,3.229c1.438,0,2.207-0.729,2.917-1.9l1.585,0.903
		c-0.917,1.684-2.625,2.664-4.523,2.664c-2.981,0-4.793-2.254-4.793-5.13c0-2.997,1.604-5.251,4.752-5.251
		c3.103,0,4.564,2.293,4.564,5.19v0.294H188.222z M193.788,718.272c-0.229-1.46-1.188-2.436-2.688-2.436
		c-1.461,0-2.545,1.04-2.772,2.436H193.788z"/>
	<path fill="#1B5880" d="M199.229,724.253h-1.876v-18.089h1.876V724.253z"/>
	<path fill="#1B5880" d="M206.733,708.061c-0.376-0.169-0.855-0.394-1.252-0.394c-1.33,0-1.33,1.685-1.33,2.647v4.188h2.583v1.749
		h-2.583v8.001h-1.878v-8.001h-0.854v-1.749h0.854v-4.75c0-2.129,0.73-3.839,3.148-3.839c0.458,0,0.896,0.082,1.313,0.25V708.061z"
		/>
	<path fill="#1B5880" d="M215.803,724.253h-1.88v-8.001h-1.021v-1.749h1.021v-3.735h1.88v3.735h1.833v1.749h-1.833V724.253z"/>
	<path fill="#1B5880" d="M228.202,719.399c0,2.937-2.293,5.19-5.209,5.19c-2.919,0-5.209-2.254-5.209-5.19s2.291-5.19,5.209-5.19
		C225.909,714.209,228.202,716.463,228.202,719.399z M219.657,719.399c0,1.835,1.479,3.394,3.335,3.394
		c1.852,0,3.333-1.559,3.333-3.394c0-1.856-1.481-3.398-3.333-3.398C221.136,716.001,219.657,717.543,219.657,719.399z"/>
	<path fill="#1B5880" d="M234.373,714.503h2.189l3.294,6.188l3.063-6.188h2.105l-7.9,15.337h-2.126l3.834-7.25L234.373,714.503z"/>
	<path fill="#1B5880" d="M255.572,719.399c0,2.937-2.292,5.19-5.209,5.19c-2.919,0-5.212-2.254-5.212-5.19s2.293-5.19,5.212-5.19
		C253.279,714.209,255.572,716.463,255.572,719.399z M247.029,719.399c0,1.835,1.477,3.394,3.333,3.394
		c1.854,0,3.335-1.559,3.335-3.394c0-1.856-1.481-3.398-3.335-3.398C248.505,716.001,247.029,717.543,247.029,719.399z"/>
	<path fill="#1B5880" d="M259.074,714.503v5.397c0,1.559,0.399,2.936,2.254,2.936c1.853,0,2.252-1.377,2.252-2.936v-5.397h1.874
		v5.604c0,2.664-1.25,4.482-4.126,4.482c-2.878,0-4.128-1.818-4.128-4.482v-5.604H259.074z"/>
	<path fill="#1B5880" d="M269.955,716.083h0.065c0.459-1.145,1.418-1.874,2.667-1.874c0.544,0,1.083,0.189,1.543,0.479l-0.853,1.71
		c-0.336-0.294-0.712-0.397-1.148-0.397c-2.021,0-2.273,1.874-2.273,3.459v4.793h-1.874v-9.75h1.874V716.083z"/>
	<path fill="#1B5880" d="M98.667,733.347c-0.375-0.165-0.853-0.397-1.246-0.397c-1.336,0-1.336,1.688-1.336,2.646v4.188h2.582v1.753
		h-2.582v8.002h-1.876v-8.002h-0.853v-1.753h0.853v-4.749c0-2.125,0.73-3.835,3.146-3.835c0.46,0,0.898,0.082,1.312,0.251V733.347z"
		/>
	<path fill="#1B5880" d="M101.357,739.784v5.397c0,1.567,0.397,2.945,2.251,2.945s2.252-1.378,2.252-2.945v-5.397h1.876v5.604
		c0,2.674-1.252,4.482-4.128,4.482c-2.875,0-4.125-1.809-4.125-4.482v-5.604H101.357z"/>
	<path fill="#1B5880" d="M112.197,749.539h-1.876v-18.088h1.876V749.539z"/>
	<path fill="#1B5880" d="M116.826,749.539h-1.874v-18.088h1.874V749.539z"/>
	<path fill="#1B5880" d="M127.248,741.412h0.043c0.769-1.17,1.937-1.917,3.396-1.917c2.815,0,4.586,2.439,4.586,5.108
		c0,2.789-1.669,5.268-4.67,5.268c-1.375,0-2.562-0.747-3.312-1.848h-0.043v7.103h-1.874v-15.342h1.874V741.412z M133.396,744.664
		c0-1.896-1.145-3.507-3.167-3.507c-1.939,0-3.085,1.693-3.085,3.507c0,1.835,1.105,3.541,3.085,3.541
		C132.271,748.205,133.396,746.581,133.396,744.664z"/>
	<path fill="#1B5880" d="M146.655,744.686c0,2.94-2.295,5.186-5.212,5.186c-2.917,0-5.209-2.245-5.209-5.186
		c0-2.937,2.293-5.19,5.209-5.19C144.36,739.495,146.655,741.749,146.655,744.686z M138.109,744.686
		c0,1.835,1.479,3.398,3.333,3.398c1.857,0,3.335-1.563,3.335-3.398c0-1.857-1.479-3.398-3.335-3.398
		C139.588,741.287,138.109,742.828,138.109,744.686z"/>
	<path fill="#1B5880" d="M150.513,749.539h-1.878v-8.002h-1.021v-1.753h1.021v-3.73h1.878v3.73h1.831v1.753h-1.831V749.539z"/>
	<path fill="#1B5880" d="M154.492,744.975c0.022,1.671,1.149,3.23,2.941,3.23c1.44,0,2.208-0.73,2.919-1.896l1.583,0.898
		c-0.917,1.688-2.625,2.664-4.523,2.664c-2.982,0-4.793-2.245-4.793-5.125c0-2.997,1.604-5.251,4.752-5.251
		c3.106,0,4.564,2.293,4.564,5.19v0.289H154.492z M160.058,743.559c-0.227-1.46-1.185-2.436-2.688-2.436
		c-1.458,0-2.543,1.041-2.772,2.436H160.058z"/>
	<path fill="#1B5880" d="M165.417,741.098h0.043c0.581-1.041,1.749-1.603,2.938-1.603c2.75,0,3.458,1.853,3.458,4.231v5.812h-1.876
		v-5.584c0-1.666-0.227-2.798-2.148-2.798c-2.416,0-2.416,2.134-2.416,3.903v4.479h-1.876v-9.755h1.876V741.098z"/>
	<path fill="#1B5880" d="M176.591,749.539h-1.876v-8.002h-1.021v-1.753h1.021v-3.73h1.876v3.73h1.833v1.753h-1.833V749.539z"/>
	<path fill="#1B5880" d="M182.093,735.328c0,0.708-0.581,1.27-1.293,1.27c-0.708,0-1.289-0.562-1.289-1.27
		c0-0.734,0.581-1.316,1.289-1.316C181.512,734.012,182.093,734.594,182.093,735.328z M181.736,749.539h-1.874v-9.755h1.874V749.539
		z"/>
	<path fill="#1B5880" d="M193.892,749.539h-1.876v-1.516h-0.043c-0.75,1.101-1.917,1.848-3.314,1.848
		c-2.979,0-4.668-2.479-4.668-5.268c0-2.669,1.772-5.108,4.605-5.108c1.44,0,2.605,0.747,3.376,1.917h0.043v-1.628h1.876V749.539z
		 M192.119,744.664c0-1.896-1.146-3.507-3.17-3.507c-1.937,0-3.083,1.693-3.083,3.507c0,1.835,1.104,3.541,3.083,3.541
		C190.994,748.205,192.119,746.581,192.119,744.664z"/>
	<path fill="#1B5880" d="M198.289,749.539h-1.876v-18.088h1.876V749.539z"/>
	<path fill="#1B5880" d="M206.837,731.451h1.876v9.961h0.043c0.769-1.17,1.937-1.917,3.395-1.917c2.815,0,4.585,2.439,4.585,5.108
		c0,2.789-1.667,5.268-4.67,5.268c-1.373,0-2.561-0.747-3.31-1.848h-0.043v1.516h-1.876V731.451z M214.859,744.664
		c0-1.896-1.144-3.507-3.167-3.507c-1.937,0-3.085,1.693-3.085,3.507c0,1.835,1.105,3.541,3.085,3.541
		C213.737,748.205,214.859,746.581,214.859,744.664z"/>
	<path fill="#1B5880" d="M217.008,739.784h2.189l3.294,6.192l3.063-6.192h2.105l-7.899,15.342h-2.125l3.834-7.249L217.008,739.784z"
		/>
	<path fill="#1B5880" d="M238.021,745.994l2.876-6.75l2.856,6.75l2.833-6.21h2.127l-4.959,10.087l-2.856-6.524l-2.876,6.524
		l-4.961-10.087h2.126L238.021,745.994z"/>
	<path fill="#1B5880" d="M259.199,744.686c0,2.94-2.293,5.186-5.212,5.186s-5.208-2.245-5.208-5.186c0-2.937,2.289-5.19,5.208-5.19
		S259.199,741.749,259.199,744.686z M250.654,744.686c0,1.835,1.479,3.398,3.333,3.398s3.335-1.563,3.335-3.398
		c0-1.857-1.481-3.398-3.335-3.398S250.654,742.828,250.654,744.686z"/>
	<path fill="#1B5880" d="M262.91,741.373h0.062c0.46-1.148,1.419-1.878,2.667-1.878c0.544,0,1.084,0.186,1.544,0.479l-0.853,1.71
		c-0.334-0.294-0.712-0.397-1.148-0.397c-2.021,0-2.271,1.874-2.271,3.459v4.793h-1.876v-9.755h1.876V741.373z"/>
	<path fill="#1B5880" d="M270.229,743.455l3.668-3.671h2.48l-4.169,4.046l4.584,5.709h-2.438l-3.483-4.435l-0.643,0.644v3.791
		h-1.878v-18.088h1.878V743.455z"/>
	<path fill="#1B5880" d="M280.504,735.328c0,0.708-0.583,1.27-1.291,1.27c-0.71,0-1.293-0.562-1.293-1.27
		c0-0.734,0.583-1.316,1.293-1.316C279.921,734.012,280.504,734.594,280.504,735.328z M280.15,749.539h-1.874v-9.755h1.874V749.539z
		"/>
	<path fill="#1B5880" d="M285.029,741.098h0.041c0.583-1.041,1.749-1.603,2.94-1.603c2.751,0,3.457,1.853,3.457,4.231v5.812h-1.874
		v-5.584c0-1.666-0.231-2.798-2.148-2.798c-2.416,0-2.416,2.134-2.416,3.903v4.479h-1.876v-9.755h1.876V741.098z"/>
	<path fill="#1B5880" d="M303.185,749.354c0,3.359-0.959,5.772-4.752,5.772c-2.71,0-4.67-1.667-4.711-4.417h1.876
		c0,1.749,1.207,2.75,2.917,2.75c2.312,0,2.791-1.584,2.791-3.588v-1.848h-0.038c-0.752,1.101-1.941,1.848-3.316,1.848
		c-2.999,0-4.668-2.479-4.668-5.268c0-2.669,1.771-5.108,4.586-5.108c1.457,0,2.625,0.747,3.398,1.96h0.038v-1.671h1.879V749.354z
		 M301.409,744.664c0-1.896-1.144-3.507-3.167-3.507c-1.938,0-3.085,1.693-3.085,3.507c0,1.835,1.105,3.541,3.085,3.541
		C300.287,748.205,301.409,746.581,301.409,744.664z"/>
	<path fill="#1B5880" d="M102.982,774.825h-1.874v-1.524h-0.043c-0.751,1.109-1.917,1.861-3.314,1.861
		c-2.979,0-4.667-2.483-4.667-5.277c0-2.664,1.772-5.104,4.605-5.104c1.44,0,2.604,0.747,3.377,1.913h0.043v-1.624h1.874V774.825z
		 M101.212,769.945c0-1.896-1.146-3.502-3.167-3.502c-1.939,0-3.085,1.693-3.085,3.502c0,1.836,1.104,3.55,3.085,3.55
		C100.087,773.495,101.212,771.867,101.212,769.945z"/>
	<path fill="#1B5880" d="M109.341,767.303c-0.229-0.479-0.706-0.859-1.248-0.859c-0.522,0-1.021,0.424-1.021,0.963
		c0,0.855,1.123,1.23,2.269,1.754c1.148,0.518,2.254,1.226,2.254,2.768c0,1.856-1.546,3.234-3.359,3.234
		c-1.414,0-2.854-0.816-3.375-2.189l1.604-0.734c0.397,0.734,0.875,1.257,1.771,1.257c0.794,0,1.481-0.544,1.481-1.378
		c0-0.521-0.248-0.768-0.687-1.062l-1.835-0.98c-1.082-0.587-1.876-1.127-1.876-2.461c0-1.585,1.293-2.833,2.876-2.833
		c1.189,0,2.148,0.644,2.668,1.706L109.341,767.303z"/>
	<path fill="#1B5880" d="M128.604,774.825h-1.878v-1.524h-0.039c-0.751,1.109-1.917,1.861-3.316,1.861
		c-2.979,0-4.668-2.483-4.668-5.277c0-2.664,1.772-5.104,4.607-5.104c1.44,0,2.604,0.747,3.376,1.913h0.039v-1.624h1.878V774.825z
		 M126.831,769.945c0-1.896-1.145-3.502-3.167-3.502c-1.939,0-3.085,1.693-3.085,3.502c0,1.836,1.105,3.55,3.085,3.55
		C125.706,773.495,126.831,771.867,126.831,769.945z"/>
	<path fill="#1B5880" d="M141.903,758.633c-0.375-0.169-0.853-0.397-1.252-0.397c-1.332,0-1.332,1.688-1.332,2.646v4.188h2.584
		v1.754h-2.584v8.001h-1.874v-8.001h-0.857v-1.754h0.857v-4.75c0-2.124,0.728-3.838,3.144-3.838c0.462,0,0.896,0.086,1.315,0.254
		V758.633z"/>
	<path fill="#1B5880" d="M151.951,774.825h-1.876v-1.524h-0.041c-0.753,1.109-1.919,1.861-3.316,1.861
		c-2.979,0-4.667-2.483-4.667-5.277c0-2.664,1.77-5.104,4.605-5.104c1.44,0,2.606,0.747,3.379,1.913h0.041v-1.624h1.876V774.825z
		 M150.176,769.945c0-1.896-1.144-3.502-3.165-3.502c-1.938,0-3.085,1.693-3.085,3.502c0,1.836,1.103,3.55,3.085,3.55
		C149.053,773.495,150.176,771.867,150.176,769.945z"/>
	<path fill="#1B5880" d="M156.202,766.301h0.043c0.542-0.854,1.522-1.52,2.586-1.52c1.27,0,2.185,0.644,2.811,1.731
		c0.604-1.045,1.772-1.731,3.003-1.731c2.563,0,3.228,1.999,3.228,4.21v5.834H166v-5.519c0-1.257-0.168-2.863-1.814-2.863
		c-2.001,0-2.144,2.09-2.144,3.589v4.793h-1.878v-5.169c0-1.27-0.062-3.213-1.792-3.213c-2.001,0-2.17,2.064-2.17,3.589v4.793
		h-1.874v-9.755h1.874V766.301z"/>
	<path fill="#1B5880" d="M173.025,760.61c0,0.708-0.583,1.273-1.293,1.273c-0.706,0-1.291-0.565-1.291-1.273
		c0-0.729,0.585-1.312,1.291-1.312C172.442,759.298,173.025,759.881,173.025,760.61z M172.673,774.825h-1.878v-9.755h1.878V774.825z
		"/>
	<path fill="#1B5880" d="M177.63,774.825h-1.874v-18.089h1.874V774.825z"/>
	<path fill="#1B5880" d="M178.735,765.07h2.191l3.292,6.192l3.066-6.192h2.103l-7.897,15.342h-2.127l3.834-7.254L178.735,765.07z"/>
	<path fill="#1B5880" d="M198.559,774.825h-1.874v-8.001h-1.021v-1.754h1.021v-3.73h1.874v3.73h1.835v1.754h-1.835V774.825z"/>
	<path fill="#1B5880" d="M202.542,770.261c0.022,1.667,1.146,3.234,2.938,3.234c1.44,0,2.211-0.734,2.917-1.899l1.583,0.894
		c-0.916,1.688-2.623,2.673-4.521,2.673c-2.979,0-4.793-2.254-4.793-5.13c0-3.001,1.604-5.251,4.752-5.251
		c3.107,0,4.562,2.293,4.562,5.19v0.289H202.542z M208.106,768.845c-0.227-1.46-1.186-2.436-2.688-2.436
		c-1.458,0-2.542,1.036-2.772,2.436H208.106z"/>
	<path fill="#1B5880" d="M220.739,774.825h-1.876v-1.524h-0.041c-0.749,1.109-1.917,1.861-3.312,1.861
		c-2.982,0-4.67-2.483-4.67-5.277c0-2.664,1.772-5.104,4.605-5.104c1.438,0,2.606,0.747,3.376,1.913h0.041v-1.624h1.876V774.825z
		 M218.966,769.945c0-1.896-1.146-3.502-3.167-3.502c-1.939,0-3.083,1.693-3.083,3.502c0,1.836,1.103,3.55,3.083,3.55
		C217.841,773.495,218.966,771.867,218.966,769.945z"/>
	<path fill="#1B5880" d="M224.992,766.301h0.043c0.544-0.854,1.52-1.52,2.584-1.52c1.272,0,2.189,0.644,2.815,1.731
		c0.603-1.045,1.771-1.731,2.999-1.731c2.567,0,3.229,1.999,3.229,4.21v5.834h-1.874v-5.519c0-1.257-0.168-2.863-1.814-2.863
		c-2.001,0-2.146,2.09-2.146,3.589v4.793h-1.876v-5.169c0-1.27-0.062-3.213-1.792-3.213c-2.001,0-2.17,2.064-2.17,3.589v4.793
		h-1.874v-9.755h1.874V766.301z"/>
	<path fill="#1B5880" d="M242.108,773.953c0,0.669-0.544,1.209-1.209,1.209c-0.667,0-1.209-0.54-1.209-1.209
		c0-0.652,0.542-1.214,1.209-1.214C241.564,772.739,242.108,773.301,242.108,773.953z"/>
</g>
<g>
	<path d="M108.747,145.906h23.423v16.547H89.21V87.298h19.537V145.906z"/>
	<path d="M266.227,103.845v12.559h22.026v16.548h-22.026v12.954h23.225v16.547h-42.759V87.298h42.759v16.546H266.227z"/>
	<path d="M108.747,231.213h23.423v16.546H89.21v-75.15h19.537V231.213z"/>
	<path d="M306.859,172.609v42.258c0,9.67-0.397,19.239-7.875,26.517c-6.278,6.177-16.145,8.371-24.917,8.371
		s-18.638-2.194-24.919-8.371c-7.475-7.278-7.876-16.847-7.876-26.517v-42.258h19.539v39.566c0,9.771,0.695,20.437,13.256,20.437
		c12.559,0,13.254-10.666,13.254-20.437v-39.566H306.859z"/>
	<path d="M394.173,205.801c-0.198,10.961-0.997,20.332-7.673,29.699c-7.375,10.264-18.442,14.75-31.003,14.75
		c-23.62,0-40.062-16.046-40.062-39.669c0-24.418,16.542-40.466,40.762-40.466c15.45,0,27.411,6.976,33.888,21.031l-18.537,7.777
		c-2.69-7.177-8.373-11.961-16.249-11.961c-12.854,0-19.534,12.259-19.534,23.719c0,11.667,6.978,23.524,19.837,23.524
		c8.472,0,14.949-4.385,15.748-13.058h-15.946v-15.346H394.173z"/>
	<path d="M450.886,201.613v-29.004h19.534v75.15h-19.534v-30.796h-28.21v30.796h-19.534v-75.15h19.534v29.004H450.886z"/>
	<path d="M136.456,326.09c-7.477,5.084-16.644,8.969-25.713,8.969c-12.958,0-24.123-7.774-24.123-21.527
		c0-11.262,6.678-16.745,16.149-20.93l1.792-0.799l-1.593-2.191c-2.392-3.292-5.384-6.88-5.384-13.06
		c0-12.954,11.263-20.631,23.323-20.631c11.963,0,23.524,7.576,23.524,20.435c0,9.368-6.179,14.156-13.953,18.041l9.467,9.964
		c3.688-3.286,7.077-6.678,9.867-10.664l11.065,10.564l-9.469,10.169l-0.896,0.894l16.845,17.743h-24.421L136.456,326.09z
		 M113.931,301.667c-3.188,1.997-7.077,4.789-7.077,8.975c0,4.484,4.484,6.874,8.472,6.874c3.688,0,7.375-1.295,10.467-3.087
		L113.931,301.667z M128.979,276.154c0-3.787-2.588-6.978-6.576-6.978c-3.487,0-6.279,2.494-6.279,6.181s3.487,7.278,5.879,9.966
		C125.393,283.428,128.979,280.239,128.979,276.154z"/>
	<path d="M227.458,316.519h23.418v16.547h-42.958v-75.153h19.539V316.519z"/>
	<path d="M386.932,277.251c-3.592-2.993-8.178-4.985-12.963-4.985c-3.588,0-8.368,2.094-8.368,6.281c0,4.383,5.277,6.08,8.667,7.176
		l4.987,1.496c10.467,3.09,18.541,8.371,18.541,20.53c0,7.474-1.796,15.152-7.776,20.236c-5.881,4.983-13.753,7.073-21.331,7.073
		c-9.47,0-18.736-3.189-26.413-8.573l8.368-15.744c4.888,4.284,10.665,7.772,17.35,7.772c4.581,0,9.465-2.293,9.465-7.578
		c0-5.479-7.673-7.373-11.857-8.567c-12.263-3.489-20.337-6.68-20.337-21.231c0-15.251,10.863-25.217,25.916-25.217
		c7.574,0,16.84,2.392,23.524,6.179L386.932,277.251z"/>
	<path d="M426.597,274.46v12.559h22.03v16.544h-22.03v12.956h23.227v16.547h-42.761v-75.153h42.761v16.547H426.597z"/>
	<path d="M220.08,359.769v12.557h22.028v16.546H220.08v12.958h23.225v16.546h-42.761v-75.155h42.761v16.547H220.08z"/>
	<path d="M274.897,443.656h-19.535v-75.148h19.535V443.656z"/>
	<path d="M362.613,401.696c-0.203,10.963-1.002,20.333-7.678,29.705c-7.375,10.265-18.442,14.751-31.003,14.751
		c-23.62,0-40.065-16.051-40.065-39.672c0-24.418,16.546-40.468,40.764-40.468c15.45,0,27.411,6.978,33.888,21.033l-18.537,7.772
		c-2.69-7.177-8.373-11.961-16.244-11.961c-12.859,0-19.539,12.259-19.539,23.719c0,11.667,6.978,23.526,19.837,23.526
		c8.472,0,14.948-4.387,15.747-13.055h-15.946v-15.35H362.613z"/>
	<path d="M419.321,372.226v-29.004h19.534v75.155h-19.534v-30.8h-28.21v30.8h-19.534v-75.155h19.534v29.004H419.321z"/>
	<path d="M481.514,418.376h-19.535v-58.608h-16.149v-16.547h51.833v16.547h-16.148V418.376z"/>
	<g>
		<path fill="#1B5880" d="M225.666,208.215c0,20.689-18.656,37.463-41.669,37.463c-23.008,0-41.662-16.773-41.662-37.463H225.666z"
			/>
		<g>
			<path fill="#8F9192" d="M171.06,190.14c-1.509,0-2.729-1.222-2.729-2.725c0-5.061-3.877-9.185-8.645-9.185
				c-4.77,0-8.647,4.124-8.647,9.185c0,1.502-1.22,2.725-2.731,2.725c-1.507,0-2.729-1.222-2.729-2.725
				c0-8.075,6.326-14.634,14.107-14.634c7.774,0,14.101,6.559,14.101,14.634C173.787,188.918,172.565,190.14,171.06,190.14
				L171.06,190.14z"/>
			<path fill="#8F9192" d="M219.689,190.14c-1.509,0-2.731-1.222-2.731-2.725c0-5.061-3.875-9.185-8.643-9.185
				c-4.767,0-8.645,4.124-8.645,9.185c0,1.502-1.224,2.725-2.733,2.725c-1.504,0-2.729-1.222-2.729-2.725
				c0-8.075,6.334-14.634,14.106-14.634c7.777,0,14.105,6.559,14.105,14.634C222.42,188.918,221.198,190.14,219.689,190.14
				L219.689,190.14z"/>
		</g>
	</g>
	<g>
		<g>
			<path fill="#8F9192" d="M280.955,281.878c1.093-4.376,6.563-9.631,18.378-9.515c11.813-0.117,17.284,5.139,18.382,9.515
				c0.812,3.254,0.721,5.542,0.111,7.145c4.768,0.95,9.755,2.31,14.924,4.165c0.086-0.447,0.172-0.892,0.276-1.354
				c0,0,5.268-20.346-15.58-30.193c0,0-7.318-3.897-18.113-3.461c-10.791-0.436-18.114,3.461-18.114,3.461
				c-20.85,9.847-15.58,30.193-15.58,30.193c0.143,0.613,0.266,1.213,0.374,1.801c3.748-1.574,8.755-3.312,14.834-4.59
				C280.234,287.442,280.137,285.149,280.955,281.878z"/>
			<path fill="#1B5880" d="M332.75,293.187c-5.169-1.855-10.156-3.215-14.924-4.165c-1.502,3.934-6.174,3.644-8.428,3.026
				c-3.731-1.019-10.065-1.636-10.065-1.636s-6.335,0.618-10.063,1.636c-2.25,0.618-6.907,0.903-8.422-3.005
				c-6.08,1.278-11.086,3.016-14.834,4.59c1.649,8.891-0.374,14.323-0.374,14.323c-4.666,10.979-1.457,24.902-1.457,24.902
				c7.911,26.253,25.888,24.949,35.151,24.941c10.773-0.013,27.018,0.008,35.152-24.941c0,0,3.208-13.923-1.459-24.902
				C333.026,307.957,330.949,302.339,332.75,293.187z"/>
			<g>
				<path fill="#3789B4" d="M292.236,327.327c-1.056-1.408-0.935-3.595,0.274-4.877l2.971-3.167
					c1.207-1.283,1.252-2.319,0.104-2.319c-1.148,0-3.003,1.084-4.145,2.427l-3.508,4.126c-0.274,0.337-0.581,0.706-0.883,1.082
					c-0.488,0.596-0.887-0.35-0.887-2.111v-11.209c0-1.76-0.76-3.191-1.704-3.191s-1.708,1.432-1.708,3.191v21.499
					c0,1.762,0.764,3.187,1.708,3.187s1.704-1.425,1.704-3.187v-0.769c0-1.76,0.399-3.631,0.887-4.171
					c0.486-0.544,1.717,0.177,2.746,1.61l2.829,3.929c1.025,1.427,2.804,2.586,3.968,2.586c1.157,0,1.244-1.144,0.188-2.552
					L292.236,327.327z"/>
				<path fill="#3789B4" d="M316.03,316.964c-0.829,0-1.542,0.639-1.598,1.434c-0.052,0.792-0.794,0.045-2.293-0.881
					c-0.954-0.592-2.197-0.986-3.782-0.986c-4.357,0-8.561,3.646-8.561,10.089c0,5.259,3.379,9.266,8.09,9.266
					c1.52,0,2.803-0.38,3.848-0.991c1.52-0.888,2.275-1.717,2.275-1.129s0,1.058,0,1.058c0,4.789-2.591,6.637-6.123,6.637
					c-1.054,0-2.025-0.138-2.894-0.367c-1.554-0.408-2.875-0.538-3.113,0.194c-0.241,0.726,0.79,2.094,2.509,2.496
					c1.089,0.255,2.263,0.391,3.377,0.391c2.4,0,5.069-0.551,6.913-2.278c1.844-1.649,2.708-4.325,2.708-8.679v-11.032
					c0-1.006,0.017-1.853,0.043-2.612C317.473,318.13,316.868,316.964,316.03,316.964z M313.975,327.875
					c0,0.591-0.082,1.256-0.276,1.848c-0.742,2.198-2.677,3.532-4.793,3.532c-3.73,0-5.613-3.104-5.613-6.831
					c0-4.4,2.358-7.189,5.648-7.189c2.521,0,4.205,1.649,4.836,3.653c0.155,0.471,0.198,0.98,0.198,1.572V327.875z"/>
			</g>
			<g>
				<g>
					<path fill="#C2C3C3" d="M283.738,264.071c0.151,0.481-0.112,0.974-0.572,1.133c-0.46,0.155-0.969-0.093-1.14-0.562
						c-0.173-0.475,0.078-0.989,0.561-1.153C283.071,263.319,283.589,263.598,283.738,264.071z"/>
				</g>
				<g>
					<path fill="#C2C3C3" d="M286.236,263.348c0.125,0.485-0.153,0.984-0.624,1.114c-0.473,0.129-0.974-0.153-1.116-0.626
						c-0.145-0.488,0.136-0.985,0.626-1.119C285.612,262.579,286.113,262.864,286.236,263.348z"/>
				</g>
				<g>
					<path fill="#C2C3C3" d="M288.769,262.747c0.104,0.483-0.201,0.963-0.676,1.08c-0.475,0.117-0.963-0.184-1.082-0.673
						c-0.125-0.484,0.177-0.972,0.671-1.088C288.179,261.939,288.663,262.255,288.769,262.747z"/>
				</g>
				<g>
					<path fill="#C2C3C3" d="M291.323,262.261c0.086,0.499-0.242,0.944-0.723,1.045c-0.479,0.093-0.95-0.227-1.052-0.714
						c-0.099-0.492,0.223-0.967,0.724-1.066C290.768,261.413,291.245,261.773,291.323,262.261z"/>
				</g>
				<g>
					<path fill="#C2C3C3" d="M293.9,261.892c0.059,0.505-0.289,0.922-0.775,1.008c-0.481,0.071-0.935-0.266-1.015-0.758
						c-0.08-0.497,0.268-0.963,0.771-1.039C293.382,261.02,293.845,261.4,293.9,261.892z"/>
				</g>
				<g>
					<path fill="#C2C3C3" d="M296.491,261.642c0.033,0.501-0.337,0.916-0.822,0.972c-0.488,0.056-0.922-0.309-0.978-0.805
						c-0.052-0.499,0.315-0.944,0.82-0.998C296.019,260.75,296.457,261.147,296.491,261.642z"/>
				</g>
				<g>
					<path fill="#C2C3C3" d="M299.091,261.525c0.005,0.492-0.382,0.915-0.872,0.943c-0.486,0.021-0.907-0.363-0.935-0.861
						c-0.026-0.503,0.363-0.926,0.875-0.948C298.666,260.627,299.084,261.02,299.091,261.525z"/>
				</g>
				<g>
					<path fill="#C2C3C3" d="M301.694,261.564c-0.025,0.499-0.44,0.898-0.924,0.894c-0.488-0.009-0.885-0.419-0.885-0.92
						s0.412-0.9,0.926-0.896C301.319,260.648,301.716,261.063,301.694,261.564z"/>
				</g>
				<g>
					<path fill="#C2C3C3" d="M304.285,261.767c-0.056,0.494-0.487,0.868-0.976,0.825c-0.483-0.043-0.854-0.479-0.82-0.98
						c0.025-0.501,0.462-0.868,0.972-0.827C303.971,260.83,304.337,261.266,304.285,261.767z"/>
				</g>
				<g>
					<path fill="#C2C3C3" d="M306.859,262.132c-0.087,0.49-0.545,0.827-1.023,0.749c-0.479-0.082-0.82-0.548-0.756-1.045
						c0.061-0.497,0.518-0.833,1.019-0.747C306.608,261.171,306.949,261.638,306.859,262.132z"/>
				</g>
				<g>
					<path fill="#C2C3C3" d="M309.406,262.669c-0.125,0.484-0.604,0.784-1.075,0.661c-0.462-0.143-0.781-0.57-0.687-1.069
						c0.096-0.486,0.588-0.848,1.08-0.697C309.226,261.693,309.527,262.186,309.406,262.669z"/>
				</g>
				<g>
					<path fill="#C2C3C3" d="M311.902,263.389c-0.164,0.481-0.647,0.704-1.114,0.574c-0.475-0.119-0.747-0.607-0.613-1.095
						c0.13-0.479,0.64-0.769,1.141-0.639C311.808,262.367,312.062,262.929,311.902,263.389z"/>
				</g>
				<g>
					<path fill="#C2C3C3" d="M314.347,264.287c-0.199,0.456-0.734,0.695-1.184,0.531c-0.453-0.166-0.683-0.682-0.519-1.153
						c0.173-0.477,0.7-0.71,1.184-0.533C314.312,263.313,314.545,263.827,314.347,264.287z"/>
				</g>
				<g>
					<path fill="#C2C3C3" d="M316.674,265.446c-0.237,0.438-0.777,0.622-1.209,0.408c-0.437-0.209-0.613-0.758-0.41-1.213
						c0.207-0.456,0.751-0.637,1.218-0.412C316.729,264.461,316.911,265.003,316.674,265.446z"/>
				</g>
			</g>
			<g>
				<g>
					<path fill="#C2C3C3" d="M287.288,267.333c0.158,0.466-0.082,0.989-0.538,1.157c-0.46,0.173-0.974-0.039-1.177-0.501
						c-0.201-0.458,0.032-1.011,0.527-1.188C286.592,266.616,287.124,266.854,287.288,267.333z"/>
				</g>
				<g>
					<path fill="#C2C3C3" d="M289.816,266.568c0.121,0.488-0.162,0.989-0.635,1.123c-0.475,0.125-0.974-0.134-1.129-0.613
						c-0.155-0.477,0.127-0.998,0.63-1.131C289.188,265.804,289.695,266.085,289.816,266.568z"/>
				</g>
				<g>
					<path fill="#C2C3C3" d="M292.4,266.02c0.084,0.497-0.238,0.965-0.724,1.052c-0.479,0.108-0.958-0.194-1.075-0.682
						c-0.116-0.488,0.203-0.976,0.715-1.095C291.826,265.202,292.313,265.528,292.4,266.02z"/>
				</g>
				<g>
					<path fill="#C2C3C3" d="M295.015,265.653c0.047,0.497-0.307,0.948-0.794,1.006c-0.49,0.056-0.948-0.289-1.028-0.775
						c-0.08-0.503,0.276-0.965,0.792-1.017C294.501,264.803,294.963,265.152,295.015,265.653z"/>
				</g>
				<g>
					<path fill="#C2C3C3" d="M297.646,265.468c0.015,0.499-0.374,0.933-0.864,0.958c-0.49,0.032-0.924-0.35-0.967-0.844
						c-0.041-0.503,0.346-0.931,0.868-0.963C297.202,264.587,297.636,264.969,297.646,265.468z"/>
				</g>
				<g>
					<path fill="#C2C3C3" d="M300.289,265.496c-0.025,0.492-0.442,0.878-0.935,0.887c-0.49-0.004-0.894-0.415-0.898-0.915
						c-0.009-0.499,0.41-0.903,0.933-0.903C299.909,264.565,300.312,264.984,300.289,265.496z"/>
				</g>
				<g>
					<path fill="#C2C3C3" d="M302.921,265.711c-0.061,0.492-0.505,0.84-0.993,0.812c-0.492-0.037-0.868-0.471-0.833-0.97
						c0.03-0.501,0.475-0.872,0.997-0.833C302.614,264.742,302.981,265.213,302.921,265.711z"/>
				</g>
				<g>
					<path fill="#C2C3C3" d="M305.529,266.115c-0.096,0.486-0.566,0.803-1.054,0.745c-0.483-0.076-0.825-0.534-0.76-1.034
						c0.068-0.493,0.544-0.833,1.062-0.756C305.296,265.135,305.628,265.621,305.529,266.115z"/>
				</g>
				<g>
					<path fill="#C2C3C3" d="M308.103,266.709c-0.13,0.471-0.622,0.784-1.105,0.671c-0.479-0.108-0.786-0.596-0.683-1.084
						s0.604-0.79,1.11-0.676C307.934,265.735,308.24,266.214,308.103,266.709z"/>
				</g>
				<g>
					<path fill="#C2C3C3" d="M310.624,267.499c-0.164,0.469-0.682,0.736-1.152,0.589s-0.739-0.658-0.601-1.135
						c0.143-0.484,0.656-0.75,1.157-0.592C310.529,266.517,310.793,267.022,310.624,267.499z"/>
				</g>
				<g>
					<path fill="#C2C3C3" d="M313.081,268.469c-0.203,0.459-0.729,0.682-1.188,0.5c-0.458-0.19-0.687-0.721-0.51-1.187
						c0.173-0.471,0.7-0.695,1.184-0.499C313.051,267.482,313.279,268.009,313.081,268.469z"/>
				</g>
			</g>
			<g>
				<g>
					<path fill="#C2C3C3" d="M292.165,270.245c0.157,0.478-0.098,0.982-0.549,1.17c-0.453,0.177-0.98-0.015-1.205-0.466
						c-0.22-0.447,0.013-1.013,0.527-1.216C291.455,269.522,292.007,269.772,292.165,270.245z"/>
				</g>
				<g>
					<path fill="#C2C3C3" d="M294.788,269.544c0.093,0.492-0.22,0.978-0.706,1.083c-0.479,0.121-0.978-0.149-1.127-0.632
						c-0.143-0.478,0.164-0.996,0.693-1.125C294.181,268.749,294.695,269.051,294.788,269.544z"/>
				</g>
				<g>
					<path fill="#C2C3C3" d="M297.478,269.177c0.037,0.497-0.337,0.943-0.831,0.989c-0.495,0.047-0.957-0.261-1.041-0.764
						c-0.084-0.484,0.285-0.985,0.829-1.032C296.977,268.313,297.443,268.674,297.478,269.177z"/>
				</g>
				<g>
					<path fill="#C2C3C3" d="M300.196,269.121c-0.02,0.501-0.44,0.892-0.939,0.881c-0.499,0.017-0.924-0.374-0.947-0.873
						c-0.026-0.496,0.395-0.919,0.937-0.937C299.79,268.203,300.216,268.624,300.196,269.121z"/>
				</g>
				<g>
					<path fill="#C2C3C3" d="M302.903,269.334c-0.068,0.484-0.526,0.853-1.027,0.808c-0.497-0.047-0.881-0.492-0.851-0.995
						c0.03-0.497,0.488-0.864,1.027-0.808C302.597,268.391,302.973,268.831,302.903,269.334z"/>
				</g>
				<g>
					<path fill="#C2C3C3" d="M305.572,269.833c-0.112,0.492-0.596,0.779-1.088,0.678c-0.497-0.078-0.838-0.546-0.761-1.041
						c0.078-0.497,0.57-0.823,1.105-0.734C305.356,268.844,305.693,269.35,305.572,269.833z"/>
				</g>
				<g>
					<path fill="#C2C3C3" d="M308.197,270.554c-0.155,0.477-0.674,0.741-1.157,0.591c-0.475-0.164-0.777-0.635-0.656-1.118
						s0.652-0.79,1.162-0.622C308.06,269.565,308.353,270.079,308.197,270.554z"/>
				</g>
			</g>
		</g>
	</g>
	<g>
		<g>
			<g>
				<path fill="#1B5880" d="M141.9,347.63c-14.7,0-37.791,3.627-43.104,11.691c-0.84,1.276-1.768,3.414-0.123,7.248l0.134,0.313
					l0.088,0.33c5.84,21.992,15.579,57.637,17.907,63.65c1.444,0.954,6.98,3.86,20.701,3.86c1.334,0,2.735-0.026,4.214-0.091h0.76
					c16.691,0,22.946-2.885,24.545-3.835c2.371-6.181,12.064-41.662,17.888-63.584l0.086-0.33l0.132-0.313
					c1.656-3.852,0.728-6.002-0.116-7.285C179.713,351.245,156.614,347.63,141.9,347.63z"/>
				<path fill="#A8ABAB" d="M141.9,342.954c-11.685,0-57,3.385-47.523,25.457c0,0,17.043,64.178,18.694,65.444
					c0,0,5.717,6.364,28.829,5.458c23.892,0.086,28.829-5.458,28.829-5.458c1.654-1.266,18.695-65.444,18.695-65.444
					C198.902,346.339,153.851,342.954,141.9,342.954z M185.128,366.569l-0.132,0.313l-0.086,0.33
					c-5.823,21.922-15.517,57.404-17.888,63.584c-1.6,0.95-7.854,3.835-24.545,3.835h-0.76c-1.479,0.064-2.88,0.091-4.214,0.091
					c-13.721,0-19.256-2.906-20.701-3.86c-2.328-6.013-12.067-41.658-17.907-63.65l-0.088-0.33l-0.134-0.313
					c-1.645-3.834-0.717-5.972,0.123-7.248c5.313-8.064,28.404-11.691,43.104-11.691c14.714,0,37.813,3.614,43.111,11.654
					C185.855,360.567,186.784,362.717,185.128,366.569z"/>
				<path fill="#DEDFDE" d="M108.79,382.109c0,0,34.235-13.878,66.228,0l3.7-22.592c0,0-32.56-15.322-73.628,0L108.79,382.109z"/>
				<path fill="#C13139" d="M138.34,376.099l2.463-13.165c0.32-1.743,0.859-1.743,1.183,0l2.433,13.023L138.34,376.099z"/>
				<g>
					<g>
						<path fill="#5E6163" d="M110.472,367.407c0.052,0.138-0.013,0.293-0.141,0.341l-1.392,0.514
							c-0.128,0.047-0.279-0.03-0.333-0.166l-2.85-7.282c-0.056-0.139,0.013-0.296,0.153-0.35l1.507-0.553
							c0.138-0.054,0.296,0.017,0.346,0.158L110.472,367.407z"/>
						<path fill="#5E6163" d="M113.011,363.946c0.05,0.145-0.021,0.298-0.157,0.341l-0.827,0.27
							c-0.134,0.043-0.28-0.039-0.328-0.177l-1.764-5.1c-0.048-0.143,0.028-0.293,0.168-0.343l0.875-0.287
							c0.145-0.043,0.298,0.035,0.343,0.177L113.011,363.946z"/>
						<path fill="#5E6163" d="M116.386,362.899c0.039,0.145-0.037,0.289-0.168,0.333l-0.84,0.233
							c-0.134,0.039-0.276-0.039-0.32-0.186l-1.583-5.156c-0.045-0.14,0.03-0.298,0.175-0.339l0.887-0.253
							c0.145-0.039,0.293,0.043,0.336,0.188L116.386,362.899z"/>
						<path fill="#5E6163" d="M119.833,361.953c0.035,0.147-0.045,0.294-0.184,0.319c0,0-0.209,0.052-0.423,0.104
							c-0.207,0.056-0.417,0.119-0.417,0.119c-0.136,0.037-0.278-0.048-0.315-0.194l-1.397-5.21
							c-0.037-0.146,0.047-0.298,0.188-0.336c0,0,0.227-0.061,0.447-0.121c0.224-0.058,0.449-0.108,0.449-0.108
							c0.145-0.037,0.292,0.056,0.331,0.199L119.833,361.953z"/>
						<path fill="#5E6163" d="M123.219,361.15c0.028,0.147-0.056,0.293-0.194,0.324l-0.842,0.203
							c-0.143,0.032-0.279-0.061-0.309-0.205l-1.209-5.259c-0.032-0.147,0.061-0.292,0.203-0.326l0.9-0.216
							c0.142-0.032,0.289,0.061,0.319,0.208L123.219,361.15z"/>
					</g>
					<g>
						<path fill="#5E6163" d="M127.768,362.752c0.026,0.147-0.067,0.285-0.198,0.315l-1.451,0.278
							c-0.132,0.024-0.266-0.076-0.293-0.223l-1.455-7.684c-0.026-0.147,0.067-0.287,0.216-0.317l1.584-0.3
							c0.145-0.028,0.29,0.069,0.311,0.216L127.768,362.752z"/>
						<path fill="#5E6163" d="M130.909,359.857c0.017,0.149-0.08,0.283-0.218,0.304l-0.861,0.125
							c-0.136,0.022-0.268-0.088-0.287-0.237l-0.76-5.337c-0.019-0.151,0.084-0.287,0.231-0.309l0.917-0.132
							c0.149-0.021,0.283,0.086,0.3,0.233L130.909,359.857z"/>
						<path fill="#5E6163" d="M134.413,359.496c0.013,0.151-0.088,0.281-0.227,0.294l-0.868,0.08
							c-0.136,0.011-0.261-0.099-0.278-0.248l-0.546-5.363c-0.013-0.153,0.097-0.288,0.244-0.298l0.924-0.086
							c0.146-0.013,0.278,0.097,0.289,0.249L134.413,359.496z"/>
						<path fill="#5E6163" d="M137.971,359.268c0.006,0.151-0.099,0.276-0.24,0.28l-0.868,0.039
							c-0.138,0.004-0.261-0.112-0.268-0.266l-0.324-5.382c-0.011-0.151,0.106-0.276,0.255-0.283l0.928-0.037
							c0.147-0.008,0.274,0.112,0.281,0.259L137.971,359.268z"/>
						<path fill="#5E6163" d="M141.44,359.175c0,0.153-0.112,0.274-0.25,0.27h-0.866c-0.143,0.007-0.259-0.112-0.261-0.259
							l-0.102-5.397c-0.004-0.147,0.112-0.272,0.263-0.281h0.926c0.151,0.002,0.276,0.125,0.276,0.276L141.44,359.175z"/>
					</g>
					<g>
						<path fill="#5E6163" d="M145.545,361.688c-0.006,0.147-0.123,0.266-0.257,0.25c0,0-0.367-0.028-0.736-0.024
							c-0.367-0.004-0.732-0.008-0.732-0.008c-0.136-0.004-0.246-0.125-0.242-0.272l0.182-7.82c0.004-0.146,0.129-0.27,0.276-0.27
							c0,0,0.408,0.006,0.812,0.011c0.408-0.002,0.81,0.032,0.81,0.032c0.151,0.011,0.27,0.141,0.264,0.292L145.545,361.688z"/>
						<path fill="#5E6163" d="M149.222,359.511c-0.015,0.149-0.138,0.266-0.276,0.249l-0.866-0.056
							c-0.14-0.009-0.244-0.138-0.233-0.29l0.399-5.378c0.008-0.149,0.14-0.261,0.293-0.253l0.926,0.067
							c0.149,0.006,0.257,0.14,0.246,0.287L149.222,359.511z"/>
						<path fill="#5E6163" d="M152.717,359.924c-0.02,0.151-0.149,0.255-0.287,0.237l-0.857-0.108
							c-0.14-0.017-0.237-0.153-0.22-0.304l0.626-5.356c0.02-0.147,0.151-0.255,0.303-0.238l0.926,0.125
							c0.147,0.013,0.249,0.151,0.231,0.298L152.717,359.924z"/>
						<path fill="#5E6163" d="M156.238,360.477c-0.025,0.151-0.16,0.248-0.3,0.22l-0.851-0.158
							c-0.136-0.028-0.231-0.166-0.208-0.317l0.864-5.32c0.023-0.151,0.166-0.25,0.313-0.22l0.909,0.173
							c0.149,0.021,0.251,0.166,0.225,0.313L156.238,360.477z"/>
						<path fill="#5E6163" d="M159.644,361.137c-0.035,0.146-0.171,0.237-0.305,0.205l-0.849-0.168
							c-0.14-0.024-0.229-0.162-0.196-0.313l1.084-5.286c0.03-0.142,0.177-0.239,0.324-0.216l0.909,0.182
							c0.145,0.039,0.24,0.19,0.208,0.333L159.644,361.137z"/>
					</g>
					<g>
						<path fill="#5E6163" d="M163.089,364.501c-0.039,0.14-0.179,0.233-0.311,0.203l-1.427-0.356
							c-0.132-0.033-0.209-0.179-0.173-0.322l1.904-7.587c0.037-0.142,0.186-0.237,0.328-0.199l1.576,0.397
							c0.143,0.037,0.233,0.182,0.192,0.324L163.089,364.501z"/>
						<path fill="#5E6163" d="M167.146,363.214c-0.043,0.143-0.192,0.225-0.324,0.186l-0.827-0.263
							c-0.134-0.039-0.208-0.194-0.164-0.337l1.576-5.16c0.041-0.143,0.198-0.225,0.339-0.175l0.887,0.276
							c0.14,0.043,0.218,0.198,0.173,0.339L167.146,363.214z"/>
						<path fill="#5E6163" d="M170.475,364.365c-0.05,0.14-0.199,0.218-0.329,0.162l-0.812-0.311
							c-0.127-0.052-0.196-0.205-0.145-0.346l1.788-5.091c0.05-0.138,0.205-0.211,0.341-0.162l0.866,0.334
							c0.142,0.052,0.211,0.211,0.16,0.354L170.475,364.365z"/>
						<path fill="#5E6163" d="M173.809,365.643c-0.056,0.14-0.208,0.209-0.341,0.162l-0.812-0.315
							c-0.129-0.047-0.188-0.203-0.138-0.341l1.997-5.013c0.056-0.143,0.213-0.208,0.354-0.155l0.866,0.333
							c0.14,0.054,0.205,0.211,0.149,0.348L173.809,365.643z"/>
						<path fill="#5E6163" d="M176.976,367.072c-0.062,0.136-0.218,0.201-0.348,0.14l-0.788-0.356
							c-0.127-0.063-0.181-0.218-0.123-0.356l2.189-4.931c0.061-0.138,0.223-0.199,0.358-0.136l-0.507,3.945L176.976,367.072z"/>
					</g>
				</g>
			</g>
			<path fill="#5E6163" d="M108.79,382.109c0,0,29.211-20.502,46.494-28.565c0,0-22.79-4.296-50.194,5.974L108.79,382.109z"/>
		</g>
	</g>
	<path fill="#C13139" d="M114.214,367.482l-0.283,13.064c1.687-0.46,3.619-0.937,5.756-1.395l-4.307-11.864
		C114.777,365.625,114.248,365.712,114.214,367.482z"/>
	<path fill="#C13139" d="M170.611,367.482l0.283,13.064c-1.686-0.46-3.616-0.937-5.753-1.395l4.305-11.864
		C170.047,365.625,170.574,365.712,170.611,367.482z"/>
	<g>
		<path d="M138.548,131.845v30.608h19.537v-27.795c-1.632,0.231-3.297,0.362-4.994,0.362
			C147.9,135.021,142.978,133.876,138.548,131.845z"/>
		<path d="M220.579,87.298l-18.242,45.654L187.84,96.463c0.121,1.189,0.184,2.398,0.184,3.623c0,9.308-3.646,17.76-9.58,24.021
			l16.119,38.346h15.152l32.093-75.155H220.579z"/>
	</g>
	<g>
		<path fill="#1B5880" d="M184.634,100.086c0,17.421-14.122,31.537-31.543,31.537s-31.543-14.116-31.543-31.537
			c0-17.423,14.122-31.545,31.543-31.545S184.634,82.663,184.634,100.086z"/>
		<path fill="#A8ABAB" d="M177.423,100.086c0,13.436-10.895,24.328-24.332,24.328s-24.332-10.892-24.332-24.328
			c0-13.439,10.895-24.334,24.332-24.334S177.423,86.646,177.423,100.086z"/>
		<path fill="#1B5880" d="M154.483,100.086H151.7l0.464-17.039c0,0-0.017-0.991,0.926-0.991c0.945,0,0.928,0.991,0.928,0.991
			L154.483,100.086z"/>
		<path fill="#1B5880" d="M152.994,98.693v2.785l-17.037-0.466c0,0-0.993,0.015-0.993-0.926c0-0.948,0.993-0.931,0.993-0.931
			L152.994,98.693z"/>
		<circle fill="#1B5880" cx="153.092" cy="100.086" r="3.948"/>
		<path fill="#8F9192" d="M154.669,100.086c0,0.866-0.706,1.576-1.578,1.576s-1.578-0.71-1.578-1.576c0-0.874,0.706-1.58,1.578-1.58
			S154.669,99.212,154.669,100.086z"/>
		<g>
			<rect x="152.346" y="77.583" fill="#5B5E5F" width="1.293" height="3.199"/>
			
				<rect x="137.731" y="83.639" transform="matrix(0.7064 -0.7079 0.7079 0.7064 -19.7025 122.9827)" fill="#5B5E5F" width="1.293" height="3.2"/>
			<rect x="130.59" y="99.346" fill="#5B5E5F" width="3.202" height="1.291"/>
			
				<rect x="137.6" y="113.196" transform="matrix(-0.7062 -0.7081 0.7081 -0.7062 154.5888 293.7484)" fill="#5B5E5F" width="1.293" height="3.203"/>
			<rect x="152.353" y="119.383" fill="#5B5E5F" width="1.291" height="3.206"/>
			<polygon fill="#5B5E5F" points="168.48,116.518 169.394,115.603 167.128,113.345 166.217,114.253 			"/>
			<rect x="172.392" y="99.533" fill="#5B5E5F" width="3.202" height="1.293"/>
			
				<rect x="167.292" y="83.77" transform="matrix(0.7079 0.7063 -0.7063 0.7079 109.3617 -93.6825)" fill="#5B5E5F" width="1.29" height="3.2"/>
		</g>
	</g>
</g>
</svg>
